<mxfile host="65bd71144e" modified="2021-01-18T00:13:21.341Z" agent="5.0 (Macintosh; Intel Mac OS X 11_0_0) AppleWebKit/537.36 (KHTML, like Gecko) Code/1.52.1 Chrome/83.0.4103.122 Electron/9.3.5 Safari/537.36" etag="RGQUDocDTiimTZRH3Lwd" version="13.10.0" type="embed">
    <diagram id="qqU1noQuktqSut9pqOvY" name="Page-1">
        <mxGraphModel dx="3292" dy="5245" grid="1" gridSize="10" guides="1" tooltips="1" connect="1" arrows="1" fold="1" page="1" pageScale="1" pageWidth="1600" pageHeight="900" background="#ffffff" math="0" shadow="0">
            <root>
                <mxCell id="0"/>
                <mxCell id="1" parent="0"/>
                <mxCell id="28" value="" style="rounded=1;whiteSpace=wrap;html=1;labelBackgroundColor=#66CC00;fontColor=#FFFFFF;fillColor=none;strokeColor=#1A1A1A;dashed=1;" parent="1" vertex="1">
                    <mxGeometry x="-635" y="-2960" width="320" height="230" as="geometry"/>
                </mxCell>
                <mxCell id="7" value="&lt;span style=&quot;font-size: 27px&quot;&gt;Firebase&lt;/span&gt;" style="rounded=1;whiteSpace=wrap;html=1;strokeColor=#6F0000;fillColor=#a20025;fontColor=#ffffff;direction=south;" parent="1" vertex="1">
                    <mxGeometry x="-635" y="-3715" width="275" height="115" as="geometry"/>
                </mxCell>
                <mxCell id="18" style="edgeStyle=orthogonalEdgeStyle;rounded=0;orthogonalLoop=1;jettySize=auto;html=1;strokeColor=#000000;strokeWidth=5;fontColor=#FFFFFF;" parent="1" source="8" edge="1">
                    <mxGeometry relative="1" as="geometry">
                        <mxPoint x="-630" y="-3225" as="targetPoint"/>
                    </mxGeometry>
                </mxCell>
                <mxCell id="8" value="&lt;span style=&quot;font-size: 27px&quot;&gt;User&lt;/span&gt;&lt;br&gt;&lt;font style=&quot;font-size: 23px&quot;&gt;&lt;b&gt;(Not logged in)&lt;/b&gt;&lt;/font&gt;" style="ellipse;whiteSpace=wrap;html=1;strokeColor=#314354;fillColor=#647687;fontColor=#ffffff;" parent="1" vertex="1">
                    <mxGeometry x="-1220" y="-3290" width="220" height="130" as="geometry"/>
                </mxCell>
                <mxCell id="20" style="edgeStyle=orthogonalEdgeStyle;rounded=0;orthogonalLoop=1;jettySize=auto;html=1;entryX=0.5;entryY=1;entryDx=0;entryDy=0;entryPerimeter=0;strokeColor=#000000;strokeWidth=5;fontColor=#FFFFFF;shape=link;" parent="1" source="9" target="10" edge="1">
                    <mxGeometry relative="1" as="geometry"/>
                </mxCell>
                <mxCell id="22" style="edgeStyle=orthogonalEdgeStyle;rounded=0;orthogonalLoop=1;jettySize=auto;html=1;entryX=0.998;entryY=0.692;entryDx=0;entryDy=0;entryPerimeter=0;strokeColor=#000000;strokeWidth=5;fontColor=#FFFFFF;" parent="1" source="9" target="8" edge="1">
                    <mxGeometry relative="1" as="geometry">
                        <Array as="points">
                            <mxPoint x="-710" y="-3200"/>
                            <mxPoint x="-710" y="-3200"/>
                        </Array>
                    </mxGeometry>
                </mxCell>
                <mxCell id="9" value="&lt;font style=&quot;font-size: 29px&quot;&gt;Auth ÂµService&lt;/font&gt;" style="rounded=1;whiteSpace=wrap;html=1;strokeColor=#2D7600;fillColor=#60a917;fontColor=#ffffff;" parent="1" vertex="1">
                    <mxGeometry x="-620" y="-3270" width="290" height="90" as="geometry"/>
                </mxCell>
                <mxCell id="10" value="&lt;font style=&quot;font-size: 30px&quot;&gt;Mongo DB&lt;/font&gt;" style="shape=cylinder3;whiteSpace=wrap;html=1;boundedLbl=1;backgroundOutline=1;size=15;fillColor=#f0a30a;fontColor=#ffffff;strokeColor=#BD7000;" parent="1" vertex="1">
                    <mxGeometry x="-80" y="-3700" width="170" height="220" as="geometry"/>
                </mxCell>
                <mxCell id="17" value="&lt;span style=&quot;font-size: 23px ; line-height: 150%&quot;&gt;&amp;nbsp; &amp;nbsp;2. Firebase Token&amp;nbsp;&amp;nbsp;&lt;/span&gt;" style="edgeLabel;html=1;align=center;verticalAlign=middle;resizable=0;points=[];labelBackgroundColor=#0066CC;fontColor=#FFFFFF;" parent="1" vertex="1" connectable="0">
                    <mxGeometry x="-830" y="-3610" as="geometry"/>
                </mxCell>
                <mxCell id="16" style="edgeStyle=orthogonalEdgeStyle;rounded=0;orthogonalLoop=1;jettySize=auto;html=1;entryX=0.636;entryY=0.154;entryDx=0;entryDy=0;entryPerimeter=0;strokeColor=#000000;strokeWidth=5;fontColor=#FFFFFF;" parent="1" source="7" target="8" edge="1">
                    <mxGeometry relative="1" as="geometry">
                        <Array as="points">
                            <mxPoint x="-1080" y="-3640"/>
                        </Array>
                    </mxGeometry>
                </mxCell>
                <mxCell id="12" style="edgeStyle=orthogonalEdgeStyle;rounded=0;orthogonalLoop=1;jettySize=auto;html=1;strokeColor=#000000;strokeWidth=5;exitX=0.5;exitY=0;exitDx=0;exitDy=0;entryX=0.278;entryY=0.999;entryDx=0;entryDy=0;entryPerimeter=0;" parent="1" source="8" target="7" edge="1">
                    <mxGeometry relative="1" as="geometry">
                        <mxPoint x="-680" y="-3680" as="targetPoint"/>
                    </mxGeometry>
                </mxCell>
                <mxCell id="15" value="&lt;span style=&quot;font-size: 23px ; line-height: 150%&quot;&gt;&amp;nbsp; &amp;nbsp;1. Credentials&amp;nbsp; &amp;nbsp;&lt;/span&gt;" style="edgeLabel;html=1;align=center;verticalAlign=middle;resizable=0;points=[];labelBackgroundColor=#0066CC;fontColor=#FFFFFF;" parent="12" vertex="1" connectable="0">
                    <mxGeometry x="0.4911" y="-2" relative="1" as="geometry">
                        <mxPoint x="15" y="-27" as="offset"/>
                    </mxGeometry>
                </mxCell>
                <mxCell id="19" value="&lt;span style=&quot;font-size: 23px ; line-height: 150%&quot;&gt;&amp;nbsp; &amp;nbsp;3. Firebase Token&amp;nbsp;&amp;nbsp;&lt;/span&gt;" style="edgeLabel;html=1;align=center;verticalAlign=middle;resizable=0;points=[];labelBackgroundColor=#0066CC;fontColor=#FFFFFF;" parent="1" vertex="1" connectable="0">
                    <mxGeometry x="-820" y="-3250" as="geometry"/>
                </mxCell>
                <mxCell id="21" value="&lt;span style=&quot;font-size: 23px ; line-height: 150%&quot;&gt;&amp;nbsp; &amp;nbsp;4. Insert / Upsert User data&amp;nbsp;&amp;nbsp;&lt;/span&gt;" style="edgeLabel;html=1;align=center;verticalAlign=middle;resizable=0;points=[];labelBackgroundColor=#0066CC;fontColor=#FFFFFF;" parent="1" vertex="1" connectable="0">
                    <mxGeometry x="-170" y="-3260" as="geometry"/>
                </mxCell>
                <mxCell id="23" value="&lt;span style=&quot;font-size: 23px ; line-height: 150%&quot;&gt;&lt;b&gt;&amp;nbsp; &amp;nbsp;5. Auth Token&amp;nbsp;&amp;nbsp;&lt;/b&gt;&lt;/span&gt;" style="edgeLabel;html=1;align=center;verticalAlign=middle;resizable=0;points=[];labelBackgroundColor=#66CC00;fontColor=#FFFFFF;" parent="1" vertex="1" connectable="0">
                    <mxGeometry x="-810" y="-3225" as="geometry">
                        <mxPoint y="46" as="offset"/>
                    </mxGeometry>
                </mxCell>
                <mxCell id="25" style="edgeStyle=orthogonalEdgeStyle;rounded=0;orthogonalLoop=1;jettySize=auto;html=1;entryX=0.5;entryY=1;entryDx=0;entryDy=0;strokeColor=#000000;strokeWidth=5;fontColor=#FFFFFF;shape=link;" parent="1" source="24" target="9" edge="1">
                    <mxGeometry relative="1" as="geometry"/>
                </mxCell>
                <mxCell id="24" value="&lt;span style=&quot;font-size: 27px&quot;&gt;User&lt;/span&gt;&lt;br&gt;&lt;font style=&quot;font-size: 23px&quot;&gt;&lt;b&gt;(Logged in)&lt;/b&gt;&lt;/font&gt;" style="ellipse;whiteSpace=wrap;html=1;strokeColor=#BD7000;fillColor=#f0a30a;fontColor=#ffffff;" parent="1" vertex="1">
                    <mxGeometry x="-585" y="-2930" width="220" height="130" as="geometry"/>
                </mxCell>
                <mxCell id="29" value="&lt;span style=&quot;font-size: 33px ; line-height: 170%&quot;&gt;&amp;nbsp; Refresh Auth Token&amp;nbsp;&amp;nbsp;&lt;/span&gt;" style="edgeLabel;html=1;align=center;verticalAlign=middle;resizable=0;points=[];labelBackgroundColor=#990000;fontColor=#FFFFFF;fontSize=33;" parent="1" vertex="1" connectable="0">
                    <mxGeometry x="-300" y="-3050" as="geometry"/>
                </mxCell>
                <mxCell id="30" value="&lt;font style=&quot;font-size: 69px&quot;&gt;&lt;u&gt;Authentication Flow&lt;/u&gt;&lt;/font&gt;" style="text;html=1;align=center;verticalAlign=middle;resizable=0;points=[];autosize=1;fontSize=38;fontStyle=1;labelBackgroundColor=none;labelBorderColor=#000000;fontColor=#212121;" parent="1" vertex="1">
                    <mxGeometry x="-945" y="-3945" width="670" height="60" as="geometry"/>
                </mxCell>
                <mxCell id="32" value="" style="shape=flexArrow;endArrow=classic;startArrow=classic;html=1;strokeColor=#1A1A1A;entryX=0;entryY=0.5;entryDx=0;entryDy=0;" edge="1" parent="1" source="8" target="28">
                    <mxGeometry width="50" height="50" relative="1" as="geometry">
                        <mxPoint x="-1070" y="-2870" as="sourcePoint"/>
                        <mxPoint x="-1020" y="-2920" as="targetPoint"/>
                        <Array as="points">
                            <mxPoint x="-1110" y="-2850"/>
                        </Array>
                    </mxGeometry>
                </mxCell>
                <mxCell id="33" value="&lt;span style=&quot;line-height: 150%&quot;&gt;&lt;font style=&quot;font-size: 31px ; line-height: 173%&quot; color=&quot;#333333&quot;&gt;&amp;nbsp; &amp;nbsp;Login State Transition&amp;nbsp; &amp;nbsp;&lt;/font&gt;&lt;/span&gt;" style="edgeLabel;html=1;align=center;verticalAlign=middle;resizable=0;points=[];labelBackgroundColor=#FFCCCC;fontColor=#FFFFFF;" vertex="1" connectable="0" parent="1">
                    <mxGeometry x="-880" y="-2940" as="geometry">
                        <mxPoint y="46" as="offset"/>
                    </mxGeometry>
                </mxCell>
                <mxCell id="34" value="&lt;span style=&quot;font-size: 23px ; line-height: 150%&quot;&gt;&lt;b&gt;&amp;nbsp; &amp;nbsp;Auth Token&amp;nbsp;&amp;nbsp;&lt;/b&gt;&lt;/span&gt;" style="edgeLabel;html=1;align=center;verticalAlign=middle;resizable=0;points=[];labelBackgroundColor=#66CC00;fontColor=#FFFFFF;" vertex="1" connectable="0" parent="1">
                    <mxGeometry x="-980" y="-2980" as="geometry">
                        <mxPoint y="46" as="offset"/>
                    </mxGeometry>
                </mxCell>
                <mxCell id="35" value="&lt;span style=&quot;font-size: 23px ; line-height: 150%&quot;&gt;&lt;b&gt;&amp;nbsp; &amp;nbsp;Auth Token&amp;nbsp;&amp;nbsp;&lt;/b&gt;&lt;/span&gt;" style="edgeLabel;html=1;align=center;verticalAlign=middle;resizable=0;points=[];labelBackgroundColor=#66CC00;fontColor=#FFFFFF;" vertex="1" connectable="0" parent="1">
                    <mxGeometry x="-475" y="-2845" as="geometry">
                        <mxPoint y="46" as="offset"/>
                    </mxGeometry>
                </mxCell>
            </root>
        </mxGraphModel>
    </diagram>
</mxfile>